<?xml version="1.0" encoding="UTF-8" standalone="yes"?>
<svg version="1.2" baseProfile="tiny-ps" viewBox="0 0 64 64" xmlns="http://www.w3.org/2000/svg">
  <title>bimi-svg-tiny-12-ps</title>
  <rect fill="#FFFFFF" width="64" height="64"/>
  <g>
    <path fill="none" d="M45.5,7.5c-9,0-18,0-27,0c0,8,0,16,0,24c4.5,2.5,9,5,13.5,7.5c4.5-2.5,9-5,13.5-7.5c0-8,0-16.1,0-24.1V7.5z    M25.3,10.2c5.4,0,10.9,0,16.3,0c0.6-0.1,1.2,0.3,1.2,1c0,2.6,0,5.2,0,7.8c-0.6,0-1.2,0-1.8,0c0-2.3,0-4.6,0-7   c-5.2,0-10.5,0-15.7,0C25.3,11.4,25.3,10.8,25.3,10.2z M25.6,21.2c0.6,0,1.2,0,1.8,0c0,1.7,0,3.4,0,5.2c1.6,0.8,3.1,1.8,4.7,2.6   c1.7-1,3.4-1.9,5.1-2.9c0.3,0.5,0.6,1,0.8,1.6c-1.7,1-3.4,1.9-5.2,2.9c-0.4,0.2-0.8,0.5-1.2,0.2c-1.7-0.9-3.4-2-5.2-2.9   c-0.3-0.2-0.8-0.4-0.8-0.8C25.6,25.2,25.6,23.2,25.6,21.2z M41.9,30.5c-3.1,1.8-6.3,3.5-9.4,5.3c-0.4,0.3-0.9,0.2-1.2,0   c-3.2-1.8-6.4-3.6-9.6-5.4c-0.6-0.2-0.6-1-0.6-1.5c0-4.3,0-8.6,0-13c0-0.5,0.3-1.2,0.9-1.1c4.8,0,9.6,0,14.4,0c0,0.6,0,1.2,0,1.8   c-4.5,0-9,0-13.5,0c0,4.2,0,8.3,0,12.5c3,1.7,6,3.4,9,5.1c3-1.7,6.1-3.4,9.1-5.1c0-1.8,0-3.7,0-5.5c0.6,0,1.2,0,1.8,0c0,2,0,4,0,6   c0.1,0.6-0.5,0.9-0.9,1.1L41.9,30.5z"/>
    <path fill="none" d="M28.4,50.4c-0.6,0-1.3,0-1.9,0c0,0.9,0,1.7,0,2.6c0.7,0,1.4,0,2.1,0C29.6,52.5,29.6,50.8,28.4,50.4L28.4,50.4z   "/>
    <path fill="none" d="M45.3,50.3c0,1.9,0,3.8,0,5.7c1,0,2.1,0.2,3-0.5c1.3-1.1,1.4-3.5,0.1-4.6C47.6,50.1,46.3,50.3,45.3,50.3z"/>
    <path d="M47.1,32.7c0.3-0.4,0.2-0.9,0.2-1.3c0-8.2,0-16.3,0-24.5c0-0.5-0.2-0.8-0.6-1.2H17.3c-0.4,0.3-0.6,0.7-0.6,1.2   c0,8.3,0,16.5,0,24.8c0,0.3,0,0.6,0.1,0.9c0.7,0.6,1.5,0.9,2.3,1.4c3.9,2.2,7.9,4.4,11.8,6.6c0.5,0.3,1.1,0.6,1.6,0.2   c4.3-2.4,8.5-4.7,12.8-7.1C45.9,33.4,46.5,33.1,47.1,32.7L47.1,32.7z M32,39.1c-4.5-2.5-9-5-13.5-7.5c0-8,0-16,0-24c9,0,18,0,27,0   c0,8,0,16.1,0,24.1C41,34.2,36.5,36.7,32,39.1L32,39.1z"/>
    <path d="M41,18.9c0.6,0,1.2,0,1.8,0c0-2.6,0-5.2,0-7.8c0-0.6-0.6-1.1-1.2-1c-5.4,0-10.9,0-16.3,0c0,0.6,0,1.2,0,1.8   c5.2,0,10.5,0,15.7,0C41,14.2,41,16.5,41,18.9z"/>
    <path d="M42.8,23.4c-0.6,0-1.2,0-1.8,0c0,1.8,0,3.7,0,5.5c-3,1.7-6.1,3.4-9.1,5.1c-3-1.7-6-3.4-9-5.1c0-4.2,0-8.3,0-12.5   c4.5,0,9,0,13.5,0c0-0.6,0-1.2,0-1.8c-4.8,0-9.6,0-14.4,0c-0.6,0-1,0.6-0.9,1.1c0,4.3,0,8.6,0,13c0,0.6,0,1.3,0.6,1.5   c3.2,1.8,6.4,3.6,9.6,5.4c0.4,0.2,0.9,0.4,1.2,0c3.1-1.8,6.3-3.5,9.4-5.3c0.4-0.2,1-0.5,0.9-1.1c0-2,0-4,0-6L42.8,23.4z"/>
    <path d="M25.6,27c0,0.5,0.5,0.6,0.8,0.8c1.7,0.9,3.4,2,5.2,2.9c0.4,0.3,0.8,0,1.2-0.2c1.7-1,3.5-1.9,5.2-2.9   c-0.3-0.5-0.6-1-0.8-1.6c-1.7,1-3.4,1.9-5.1,2.9c-1.6-0.8-3.1-1.8-4.7-2.6c0-1.7,0-3.4,0-5.2c-0.6,0-1.2,0-1.8,0   C25.6,23,25.6,25,25.6,27z"/>
    <path d="M12.5,52.5v1.4c0.3,1.8,1.5,3.6,3.3,4.1c2.1,0.8,4.5-0.1,5.8-1.9c-0.6-0.4-1.2-0.8-1.8-1.1c-0.8,0.9-2.2,1.4-3.4,1   c-2.3-0.7-2.3-4.5-0.1-5.4c1.2-0.5,2.6-0.1,3.4,0.9c0.6-0.4,1.2-0.7,1.9-1.1c-1.4-2.1-4.3-2.8-6.5-1.7   C13.6,49.4,12.7,50.9,12.5,52.5L12.5,52.5z"/>
    <path d="M31.4,52.4c0.6-1.9-1-4.1-3-4.2c-1.4,0-2.9,0-4.3,0c0,3.4,0,6.7,0,10.1c0.8,0,1.5,0,2.3,0c0-1.1,0-2.2,0-3.3   c0.4,0,0.7,0,1.1,0c0.7,1.1,1.2,2.3,1.9,3.3c0.8,0,1.6,0,2.4,0c-0.7-1.2-1.4-2.4-2.1-3.7C30.5,54.1,31.2,53.4,31.4,52.4z    M28.5,52.8c-0.7,0.2-1.4,0-2.1,0c0-0.9,0-1.7,0-2.6c0.6,0,1.3,0,1.9,0C29.4,50.5,29.5,52.2,28.5,52.8L28.5,52.8z"/>
    <path d="M40.5,50.3c0-0.7,0-1.4,0-2.2c-2.1,0-4.3,0-6.4,0c0,3.4,0,6.7,0,10.1c2.1,0,4.3,0,6.4,0V56c-1.4,0-2.8,0-4.2,0   c0-0.6,0-1.2,0-1.8c1.2,0,2.4,0,3.7,0c0-0.7,0-1.5,0-2.2c-1.2,0-2.5,0-3.7,0v-1.7C37.7,50.3,39.1,50.3,40.5,50.3z"/>
    <path d="M49.1,48.8c-1.8-1.1-4-0.5-6.1-0.6c0,3.4,0,6.7,0,10.1c1.6,0,3.3,0.2,4.9-0.1c2-0.5,3.4-2.4,3.6-4.4v-1.1   c-0.2-1.5-1-3.1-2.4-3.8V48.8z M48.3,55.6c-0.8,0.7-2,0.5-3,0.5c0-1.9,0-3.8,0-5.7c1,0,2.2-0.2,3.1,0.6   C49.7,52.2,49.6,54.5,48.3,55.6z"/>
  </g>
</svg>